{"title":"Big Mommas Like Father Like Son 2011 R5 - PRESTiGE","uid":6263419,"size":735344640,"categoryP":"video","categoryS":"movies","magnet":"?xt=urn:btih:3254aae1fc29b4df61c779f29aed7706cf263ebc&amp;dn=Big+Mommas+Like+Father+Like+Son+2011+R5+-+PRESTiGE&amp;tr=udp%3A%2F%2Ftracker.openbittorrent.com%3A80&amp;tr=udp%3A%2F%2Fopen.demonii.com%3A1337&amp;tr=udp%3A%2F%2Ftracker.coppersurfer.tk%3A6969&amp;tr=udp%3A%2F%2Fexodus.desync.com%3A6969","seeders":0,"leechers":1,"uploader":"hshahaz","files":1,"time":1300824149,"description":"[img]http://img7.imageshack.us/img7/6523/bigmommasposter.jpg[/img]\n &lt;a href=&quot;\nhttp://www.imdb.com/title/tt1464174/&quot; rel=&quot;nofollow&quot; target=&quot;_NEW&quot;&gt;\nhttp://www.imdb.com/title/tt1464174/&lt;/a&gt;\n\nFile size : 701 MiB\nDuration : 1h 42mn\nOverall bit rate : 952 Kbps\n\n\nVideo\nID : 0\nFormat : MPEG-4 Visual\nFormat profile : Advanced Simple@L5\nFormat settings, BVOP : Yes\nFormat settings, QPel : No\nFormat settings, GMC : No warppoints\nFormat settings, Matrix : Default (H.263)\nMuxing mode : Packed bitstream\nCodec ID : XVID\nCodec ID/Hint : XviD\nDuration : 1h 42mn\nBit rate : 751 Kbps\nWidth : 720 pixels\nHeight : 304 pixels\nDisplay aspect ratio : 2.35:1\nFrame rate : 25.000 fps\nColor space : YUV\nChroma subsampling : 4:2:0\nBit depth : 8 bits\nScan type : Progressive\nCompression mode : Lossy\nBits/(Pixel*Frame) : 0.137\nStream size : 553 MiB (79%)\nWriting library : XviD 1.2.0.dev47 (UTC 2006-11-01)\n\nAudio\nID : 1\nFormat : MPEG Audio\nFormat version : Version 1\nFormat profile : Layer 3\nMode : Joint stereo\nMode extension : MS Stereo\nCodec ID : 55\nCodec ID/Hint : MP3\nDuration : 1h 42mn\nBit rate mode : Constant\nBit rate : 192 Kbps\nChannel(s) : 2 channels\nSampling rate : 44.1 KHz\nCompression mode : Lossy\nDelay relative to video : 26ms\nStream size : 141 MiB (20%)\nAlignment : Split accross interleaves\nInterleave, duration : 40 ms (1.00 video frame)\nInterleave, preload duration : 500 ms\n\n","torrent":{"xt":"urn:btih:3254aae1fc29b4df61c779f29aed7706cf263ebc","amp;dn":"Big+Mommas+Like+Father+Like+Son+2011+R5+-+PRESTiGE","amp;tr":["udp%3A%2F%2Ftracker.openbittorrent.com%3A80","udp%3A%2F%2Fopen.demonii.com%3A1337","udp%3A%2F%2Ftracker.coppersurfer.tk%3A6969","udp%3A%2F%2Fexodus.desync.com%3A6969"],"infoHash":"3254aae1fc29b4df61c779f29aed7706cf263ebc","infoHashBuffer":{"type":"Buffer","data":[50,84,170,225,252,41,180,223,97,199,121,242,154,237,119,6,207,38,62,188]},"announce":[],"urlList":[]}}